<svg width="10" height="11" viewBox="0 0 10 11" fill="none" xmlns="http://www.w3.org/2000/svg">
<path d="M9.475 1.565C9.33 1.355 9.145 1.17 8.935 1.025C8.46 0.68 7.84 0.5 7.095 0.5H2.905C2.805 0.5 2.705 0.505 2.61 0.515C0.97 0.62 0 1.685 0 3.405V7.595C0 8.34 0.18 8.96 0.525 9.435C0.67 9.645 0.855 9.83 1.065 9.975C1.475 10.275 1.995 10.45 2.61 10.49C2.705 10.495 2.805 10.5 2.905 10.5H7.095C8.915 10.5 10 9.415 10 7.595V3.405C10 2.66 9.82 2.04 9.475 1.565ZM8.375 3.95C8.375 4.155 8.205 4.325 8 4.325C7.795 4.325 7.625 4.155 7.625 3.95V3.36C7.625 3.32192 7.6175 3.28421 7.60293 3.24902C7.58835 3.21384 7.56699 3.18187 7.54006 3.15494C7.51313 3.12801 7.48116 3.10665 7.44598 3.09207C7.41079 3.0775 7.37308 3.07 7.335 3.07H5.375V7.93H6.265C6.47 7.93 6.64 8.1 6.64 8.305C6.64 8.51 6.47 8.68 6.265 8.68H3.735C3.53 8.68 3.36 8.51 3.36 8.305C3.36 8.1 3.53 7.93 3.735 7.93H4.625V3.07H2.665C2.62692 3.07 2.58921 3.0775 2.55402 3.09207C2.51884 3.10665 2.48687 3.12801 2.45994 3.15494C2.43301 3.18187 2.41165 3.21384 2.39707 3.24902C2.3825 3.28421 2.375 3.32192 2.375 3.36V3.95C2.375 4.155 2.205 4.325 2 4.325C1.795 4.325 1.625 4.155 1.625 3.95V3.36C1.625 2.785 2.09 2.32 2.665 2.32H7.33C7.905 2.32 8.37 2.785 8.37 3.36V3.95H8.375Z" fill="#334155"/>
</svg>
